<svg width="32" height="24" viewBox="0 0 32 24" fill="none" xmlns="http://www.w3.org/2000/svg">
<path d="M0.17 12.45L4.17 6.45C4.26059 6.31244 4.38375 6.19938 4.52855 6.12088C4.67335 6.04237 4.83529 6.00085 5 6H13C13.2652 6 13.5196 6.10536 13.7071 6.29289C13.8946 6.48043 14 6.73478 14 7V19C14 19.2652 13.8946 19.5196 13.7071 19.7071C13.5196 19.8946 13.2652 20 13 20H11C10.9988 19.2975 10.8125 18.6077 10.46 18H12V8H5.54L2 13.3V18H3.54C3.18749 18.6077 3.00125 19.2975 3 20H1C0.734784 20 0.480429 19.8946 0.292892 19.7071C0.105356 19.5196 0 19.2652 0 19V13C0.00153082 12.804 0.0606476 12.6127 0.17 12.45Z" fill="#636363"/>
<path d="M13 0H31C31.2652 0 31.5196 0.105357 31.7071 0.292893C31.8946 0.48043 32 0.734784 32 1V19C32 19.2652 31.8946 19.5196 31.7071 19.7071C31.5196 19.8946 31.2652 20 31 20H29C28.9988 19.2975 28.8125 18.6077 28.46 18H30V2H14V18H21.54C21.1875 18.6077 21.0012 19.2975 21 20H13C12.7348 20 12.4804 19.8946 12.2929 19.7071C12.1054 19.5196 12 19.2652 12 19V1C12 0.734784 12.1054 0.48043 12.2929 0.292893C12.4804 0.105357 12.7348 0 13 0Z" fill="#636363"/>
<path d="M25 24C25.7911 24 26.5645 23.7654 27.2223 23.3259C27.8801 22.8864 28.3928 22.2616 28.6955 21.5307C28.9983 20.7998 29.0775 19.9956 28.9231 19.2196C28.7688 18.4437 28.3878 17.731 27.8284 17.1716C27.269 16.6122 26.5563 16.2312 25.7804 16.0769C25.0044 15.9225 24.2002 16.0017 23.4693 16.3045C22.7384 16.6072 22.1136 17.1199 21.6741 17.7777C21.2346 18.4355 21 19.2089 21 20C21 21.0609 21.4214 22.0783 22.1716 22.8284C22.9217 23.5786 23.9391 24 25 24ZM25 18C25.3956 18 25.7822 18.1173 26.1111 18.3371C26.44 18.5568 26.6964 18.8692 26.8478 19.2346C26.9991 19.6001 27.0387 20.0022 26.9616 20.3902C26.8844 20.7781 26.6939 21.1345 26.4142 21.4142C26.1345 21.6939 25.7781 21.8844 25.3902 21.9616C25.0022 22.0387 24.6001 21.9991 24.2346 21.8478C23.8692 21.6964 23.5568 21.44 23.3371 21.1111C23.1173 20.7822 23 20.3956 23 20C23 19.4696 23.2107 18.9609 23.5858 18.5858C23.9609 18.2107 24.4696 18 25 18Z" fill="#636363"/>
<path d="M7 24C7.79112 24 8.56448 23.7654 9.22228 23.3259C9.88007 22.8864 10.3928 22.2616 10.6955 21.5307C10.9983 20.7998 11.0775 19.9956 10.9231 19.2196C10.7688 18.4437 10.3878 17.731 9.82842 17.1716C9.26901 16.6122 8.55628 16.2312 7.78036 16.0769C7.00444 15.9225 6.20017 16.0017 5.46926 16.3045C4.73836 16.6072 4.11365 17.1199 3.67412 17.7777C3.23459 18.4355 3 19.2089 3 20C3 21.0609 3.42143 22.0783 4.17157 22.8284C4.92172 23.5786 5.93913 24 7 24ZM7 18C7.39556 18 7.78224 18.1173 8.11114 18.3371C8.44004 18.5568 8.69638 18.8692 8.84776 19.2346C8.99913 19.6001 9.03874 20.0022 8.96157 20.3902C8.8844 20.7781 8.69392 21.1345 8.41421 21.4142C8.13451 21.6939 7.77814 21.8844 7.39018 21.9616C7.00222 22.0387 6.60008 21.9991 6.23463 21.8478C5.86918 21.6964 5.55682 21.44 5.33706 21.1111C5.1173 20.7822 5 20.3956 5 20C5 19.4696 5.21071 18.9609 5.58578 18.5858C5.96086 18.2107 6.46956 18 7 18Z" fill="#636363"/>
<path d="M25.3053 6.28071L20.0123 11.5737L18.7193 10.2807C18.627 10.1852 18.5167 10.109 18.3947 10.0566C18.2727 10.0042 18.1415 9.97661 18.0087 9.97546C17.8759 9.97431 17.7442 9.99961 17.6213 10.0499C17.4984 10.1002 17.3868 10.1744 17.2929 10.2683C17.199 10.3622 17.1247 10.4739 17.0745 10.5968C17.0242 10.7197 16.9989 10.8513 17 10.9841C17.0012 11.1169 17.0288 11.2481 17.0812 11.3701C17.1336 11.4921 17.2098 11.6025 17.3053 11.6947L19.3053 13.6947C19.4928 13.8822 19.7471 13.9875 20.0123 13.9875C20.2775 13.9875 20.5318 13.8822 20.7193 13.6947L26.7193 7.69471C26.9014 7.50611 27.0022 7.25351 27 6.99131C26.9977 6.72911 26.8925 6.4783 26.7071 6.29289C26.5217 6.10748 26.2709 6.00232 26.0087 6.00004C25.7465 5.99776 25.4939 6.09855 25.3053 6.28071Z" fill="#F7A137"/>
</svg>
