<svg width="28" height="32" viewBox="0 0 28 32" fill="none" xmlns="http://www.w3.org/2000/svg">
<path d="M10.4248 11.9181C10.1855 11.7301 9.82914 11.5794 9.36489 11.4701L8.34645 11.2303C8.18248 11.1923 8.04895 11.1577 7.93755 11.1252C7.82443 11.0965 7.71471 11.0557 7.6103 11.0035C7.54594 10.9739 7.49185 10.9258 7.45489 10.8654C7.41794 10.8049 7.39978 10.7349 7.40274 10.6641C7.39955 10.5823 7.41858 10.5011 7.45779 10.4292C7.49701 10.3573 7.55497 10.2973 7.62552 10.2556C7.71937 10.1962 7.82285 10.1537 7.93133 10.1298C8.05717 10.1021 8.18577 10.0889 8.31463 10.0904C8.52933 10.084 8.74296 10.1231 8.94146 10.2051L8.9726 10.2203C9.11595 10.2876 9.23054 10.4038 9.2957 10.548C9.35035 10.6748 9.44059 10.7831 9.55551 10.8598C9.67043 10.9364 9.80512 10.9782 9.9433 10.98H9.98619C10.1047 10.9802 10.2212 10.9503 10.325 10.8932C10.4288 10.8362 10.5165 10.7538 10.5798 10.6538C10.6429 10.5555 10.6801 10.4428 10.6878 10.3263C10.6956 10.2097 10.6737 10.0932 10.6241 9.98738C10.4994 9.71954 10.309 9.48748 10.0706 9.31271C9.7944 9.10916 9.48006 8.96317 9.14626 8.88344V8.69126C9.14626 8.50793 9.07336 8.3321 8.94361 8.20247C8.81386 8.07283 8.63788 8 8.45438 8C8.27089 8 8.09491 8.07283 7.96516 8.20247C7.8354 8.3321 7.76251 8.50793 7.76251 8.69126V8.84749C7.29273 8.92422 6.91012 9.09289 6.62299 9.35073C6.42312 9.52456 6.2638 9.74004 6.15622 9.98199C6.04864 10.224 5.99542 10.4865 6.00031 10.7512C6.00031 11.3671 6.21825 11.8289 6.64859 12.1234C6.88314 12.2858 7.28304 12.431 7.86975 12.5665L7.97215 12.59L8.60106 12.7282C8.73944 12.7587 8.86051 12.7884 8.9643 12.8202C9.10264 12.8578 9.23597 12.9119 9.36143 12.9813C9.41974 13.0126 9.46817 13.0595 9.50129 13.1167C9.5344 13.174 9.5509 13.2393 9.54893 13.3055C9.54893 13.5723 9.41401 13.743 9.1255 13.8439C9.07631 13.8605 9.02618 13.8741 8.97537 13.8847C8.80561 13.9179 8.63287 13.9334 8.45992 13.931C8.28534 13.9339 8.11121 13.9127 7.9424 13.8681C7.78542 13.8289 7.64376 13.7437 7.53558 13.6234C7.49027 13.5666 7.45431 13.5029 7.42903 13.4347C7.39315 13.3431 7.33904 13.2597 7.26998 13.1896C7.20091 13.1195 7.11832 13.0641 7.0272 13.0268C6.93609 12.9895 6.83835 12.971 6.73989 12.9726C6.64144 12.9741 6.54432 12.9956 6.45441 13.0357C6.3645 13.0758 6.28367 13.1337 6.21682 13.2059C6.14997 13.2782 6.09848 13.3632 6.06547 13.4559C6.03246 13.5486 6.01862 13.647 6.02478 13.7452C6.03094 13.8434 6.05698 13.9393 6.10132 14.0271C6.22352 14.2725 6.39974 14.4871 6.61677 14.6548C6.95229 14.9082 7.34549 15.0744 7.76113 15.1387V15.3087C7.76113 15.4921 7.83402 15.6679 7.96377 15.7975C8.09352 15.9272 8.2695 16 8.453 16C8.6365 16 8.81248 15.9272 8.94223 15.7975C9.07198 15.6679 9.14487 15.4921 9.14487 15.3087V15.1539C9.62919 15.0765 10.027 14.905 10.3356 14.6417C10.5469 14.469 10.7164 14.2509 10.8314 14.0036C10.9464 13.7563 11.004 13.4862 10.9998 13.2135C10.9977 12.6543 10.8054 12.2181 10.4248 11.9181Z" fill="#F7A137"/>
<path d="M21 17.25V4.25C21 2.45507 19.5077 1 17.6667 1H14.3333M14.3333 1H4.33333C2.49238 1 1 2.45507 1 4.25V23.75C1 25.545 2.49238 27 4.33333 27H16M14.3333 1V18.0625" stroke="#636363" stroke-width="2" stroke-linecap="round" stroke-linejoin="round"/>
<path d="M27 31V19.8441C27 16.9255 25.8929 14.1266 23.9223 12.0635L20.9963 9V19.3507C20.9963 20.7505 19.3811 21.4517 18.4359 20.4623L16.4936 18.4286C15.7431 17.6429 13.9419 17.1714 12.7412 18.4286C11.5404 19.6857 11.9907 21.5714 12.7412 22.3571L20.9963 31" stroke="#636363" stroke-width="2" stroke-linecap="round" stroke-linejoin="round"/>
</svg>
