<svg width="23" height="32" viewBox="0 0 23 32" fill="none" xmlns="http://www.w3.org/2000/svg">
<path d="M21.8062 13.3429H19.8653V8.59595C19.8653 3.85615 16.1145 0 11.5 0C6.8854 0 3.13471 3.85868 3.13471 8.60156V13.3429H1.21536C0.550305 13.3429 0 13.8852 0 14.5681V28.9103C0 30.6147 1.36163 32 3.02157 32H20C21.6599 32 23 30.6147 23 28.9103V14.5681C23 13.8852 22.4712 13.3429 21.8062 13.3429ZM5.54041 8.60156C5.54041 5.22217 8.21337 2.47281 11.5 2.47281C14.7866 2.47281 17.4596 5.21962 17.4596 8.59595V13.3429H5.54041V8.60156ZM20.5943 28.9103C20.5943 29.2512 20.3319 29.5298 20 29.5298H3.02157C2.68958 29.5298 2.40571 29.2512 2.40571 28.9103V15.813H20.5943V28.9103Z" fill="#636363"/>
<path d="M13.4248 22.9181C13.1855 22.7301 12.8291 22.5794 12.3649 22.4701L11.3465 22.2303C11.1825 22.1923 11.0489 22.1577 10.9376 22.1252C10.8244 22.0965 10.7147 22.0557 10.6103 22.0035C10.5459 21.9739 10.4918 21.9258 10.4549 21.8654C10.4179 21.8049 10.3998 21.7349 10.4027 21.6641C10.3996 21.5823 10.4186 21.5011 10.4578 21.4292C10.497 21.3573 10.555 21.2973 10.6255 21.2556C10.7194 21.1962 10.8229 21.1537 10.9313 21.1298C11.0572 21.1021 11.1858 21.0889 11.3146 21.0904C11.5293 21.084 11.743 21.1231 11.9415 21.2051L11.9726 21.2203C12.116 21.2876 12.2305 21.4038 12.2957 21.548C12.3503 21.6748 12.4406 21.7831 12.5555 21.8598C12.6704 21.9364 12.8051 21.9782 12.9433 21.98H12.9862C13.1047 21.9802 13.2212 21.9503 13.325 21.8932C13.4288 21.8362 13.5165 21.7538 13.5798 21.6538C13.6429 21.5555 13.6801 21.4428 13.6878 21.3263C13.6956 21.2097 13.6737 21.0932 13.6241 20.9874C13.4994 20.7195 13.309 20.4875 13.0706 20.3127C12.7944 20.1092 12.4801 19.9632 12.1463 19.8834V19.6913C12.1463 19.5079 12.0734 19.3321 11.9436 19.2025C11.8139 19.0728 11.6379 19 11.4544 19C11.2709 19 11.0949 19.0728 10.9652 19.2025C10.8354 19.3321 10.7625 19.5079 10.7625 19.6913V19.8475C10.2927 19.9242 9.91012 20.0929 9.62299 20.3507C9.42312 20.5246 9.2638 20.74 9.15622 20.982C9.04864 21.224 8.99542 21.4865 9.00031 21.7512C9.00031 22.3671 9.21825 22.8289 9.64859 23.1234C9.88314 23.2858 10.283 23.431 10.8698 23.5665L10.9721 23.59L11.6011 23.7282C11.7394 23.7587 11.8605 23.7884 11.9643 23.8202C12.1026 23.8578 12.236 23.9119 12.3614 23.9813C12.4197 24.0126 12.4682 24.0595 12.5013 24.1167C12.5344 24.174 12.5509 24.2393 12.5489 24.3055C12.5489 24.5723 12.414 24.743 12.1255 24.8439C12.0763 24.8605 12.0262 24.8741 11.9754 24.8847C11.8056 24.9179 11.6329 24.9334 11.4599 24.931C11.2853 24.9339 11.1112 24.9127 10.9424 24.8681C10.7854 24.8289 10.6438 24.7437 10.5356 24.6234C10.4903 24.5666 10.4543 24.5029 10.429 24.4347C10.3932 24.3431 10.339 24.2597 10.27 24.1896C10.2009 24.1195 10.1183 24.0641 10.0272 24.0268C9.93609 23.9895 9.83835 23.971 9.73989 23.9726C9.64144 23.9741 9.54432 23.9956 9.45441 24.0357C9.3645 24.0758 9.28367 24.1337 9.21682 24.2059C9.14997 24.2782 9.09848 24.3632 9.06547 24.4559C9.03246 24.5486 9.01862 24.647 9.02478 24.7452C9.03094 24.8434 9.05698 24.9393 9.10132 25.0271C9.22352 25.2725 9.39974 25.4871 9.61677 25.6548C9.95229 25.9082 10.3455 26.0744 10.7611 26.1387V26.3087C10.7611 26.4921 10.834 26.6679 10.9638 26.7975C11.0935 26.9272 11.2695 27 11.453 27C11.6365 27 11.8125 26.9272 11.9422 26.7975C12.072 26.6679 12.1449 26.4921 12.1449 26.3087V26.1539C12.6292 26.0765 13.027 25.905 13.3356 25.6417C13.5469 25.469 13.7164 25.2509 13.8314 25.0036C13.9464 24.7563 14.004 24.4862 13.9998 24.2135C13.9977 23.6543 13.8054 23.2181 13.4248 22.9181Z" fill="#F7A137"/>
</svg>
