<svg width="32" height="32" viewBox="0 0 32 32" fill="none" xmlns="http://www.w3.org/2000/svg">
<path d="M14 10H18V13C18 13.2652 17.8946 13.5196 17.7071 13.7071C17.5196 13.8946 17.2652 14 17 14H15C14.7348 14 14.4804 13.8946 14.2929 13.7071C14.1054 13.5196 14 13.2652 14 13V10Z" fill="#F7A137"/>
<path d="M20 23H12C11.2044 23 10.4413 22.6839 9.87868 22.1213C9.31607 21.5587 9 20.7956 9 20V12C9 11.2044 9.31607 10.4413 9.87868 9.87868C10.4413 9.31607 11.2044 9 12 9H20C20.7956 9 21.5587 9.31607 22.1213 9.87868C22.6839 10.4413 23 11.2044 23 12V20C23 20.7956 22.6839 21.5587 22.1213 22.1213C21.5587 22.6839 20.7956 23 20 23ZM12 11C11.7348 11 11.4804 11.1054 11.2929 11.2929C11.1054 11.4804 11 11.7348 11 12V20C11 20.2652 11.1054 20.5196 11.2929 20.7071C11.4804 20.8946 11.7348 21 12 21H20C20.2652 21 20.5196 20.8946 20.7071 20.7071C20.8946 20.5196 21 20.2652 21 20V12C21 11.7348 20.8946 11.4804 20.7071 11.2929C20.5196 11.1054 20.2652 11 20 11H12Z" fill="#F7A137"/>
<path d="M15 19H14C13.7348 19 13.4804 18.8946 13.2929 18.7071C13.1054 18.5196 13 18.2652 13 18C13 17.7348 13.1054 17.4804 13.2929 17.2929C13.4804 17.1054 13.7348 17 14 17H15C15.2652 17 15.5196 17.1054 15.7071 17.2929C15.8946 17.4804 16 17.7348 16 18C16 18.2652 15.8946 18.5196 15.7071 18.7071C15.5196 18.8946 15.2652 19 15 19Z" fill="#F7A137"/>
<path d="M30 24.2401L29 28.2401C28.9572 28.4111 28.8699 28.5679 28.7469 28.6943C28.624 28.8208 28.4698 28.9124 28.3 28.9601C28.2032 28.9915 28.1016 29.005 28 29.0001C27.8684 29.0008 27.7379 28.9756 27.6161 28.9258C27.4943 28.8761 27.3834 28.8027 27.29 28.7101L26.57 28.0001C25.7478 28.7368 24.8494 29.3838 23.89 29.9301L23.38 30.2001C21.1023 31.3894 18.5695 32.0071 16 32.0001C11.7565 32.0001 7.68687 30.3144 4.68629 27.3138C1.68571 24.3132 7.48154e-07 20.2435 7.48154e-07 16.0001C-0.000383589 14.7504 0.147313 13.505 0.440001 12.2901C0.517141 12.0506 0.68171 11.849 0.90089 11.7255C1.12007 11.602 1.37775 11.5656 1.62255 11.6237C1.86735 11.6817 2.08127 11.8299 2.22166 12.0387C2.36205 12.2474 2.41859 12.5015 2.38 12.7501C2.12817 13.8151 2.00065 14.9057 2 16.0001C1.99928 18.4491 2.64102 20.8556 3.86116 22.979C5.0813 25.1025 6.83713 26.8688 8.95336 28.1015C11.0696 29.3342 13.4722 29.9902 15.9212 30.004C18.3702 30.0178 20.78 29.3889 22.91 28.1801L23 28.1201C23.7695 27.6799 24.4931 27.164 25.16 26.5801L24.29 25.7101C24.1615 25.5818 24.0703 25.4209 24.0262 25.2448C23.9822 25.0686 23.9869 24.8837 24.04 24.7101C24.0876 24.5403 24.1793 24.3861 24.3058 24.2631C24.4322 24.1402 24.5889 24.0529 24.76 24.0101L28.76 23.0101C28.9311 22.9608 29.1122 22.958 29.2847 23.0022C29.4572 23.0463 29.6147 23.1356 29.7411 23.261C29.8675 23.3864 29.9582 23.5432 30.0037 23.7153C30.0492 23.8875 30.0479 24.0686 30 24.2401Z" fill="#636363"/>
<path d="M32 16.0002C32.0004 17.2499 31.8527 18.4952 31.56 19.7102C31.5072 19.9339 31.3789 20.1326 31.1968 20.2729C31.0147 20.4131 30.7898 20.4863 30.56 20.4802C30.4837 20.4906 30.4063 20.4906 30.33 20.4802C30.0732 20.4184 29.8512 20.2576 29.7125 20.0328C29.5739 19.8079 29.5298 19.5374 29.59 19.2802C29.8542 18.2066 29.9918 17.1058 30 16.0002C30.0007 13.5511 29.359 11.1447 28.1388 9.0212C26.9187 6.8977 25.1629 5.13144 23.0466 3.89874C20.9304 2.66605 18.5278 2.01006 16.0788 1.99627C13.6298 1.98249 11.22 2.61138 9.08999 3.82018C8.28652 4.27789 7.53251 4.81743 6.83999 5.43018L7.70999 6.29018C7.83853 6.41845 7.92971 6.57931 7.97376 6.75548C8.0178 6.93166 8.01304 7.1165 7.95999 7.29018C7.91236 7.45998 7.82067 7.61417 7.69422 7.73711C7.56777 7.86004 7.41106 7.94735 7.23999 7.99018L3.23999 8.99018L2.99999 9.00018C2.86838 9.00094 2.73792 8.97571 2.61608 8.92595C2.49424 8.87618 2.38343 8.80286 2.28999 8.71018C2.15971 8.58296 2.06664 8.42259 2.02082 8.24636C1.97501 8.07013 1.97817 7.88474 2.02999 7.71018L3.02999 3.71018C3.07436 3.54094 3.16235 3.3863 3.28519 3.26171C3.40802 3.13713 3.56139 3.04694 3.72999 3.00018C3.90366 2.94712 4.0885 2.94236 4.26468 2.9864C4.44085 3.03045 4.60171 3.12163 4.72999 3.25018L5.41999 4.00018C6.24868 3.26993 7.15006 2.62656 8.10999 2.08018C10.544 0.700462 13.2973 -0.0168545 16.0952 -0.000204911C18.893 0.0164447 21.6376 0.766478 24.0551 2.17506C26.4726 3.58365 28.4784 5.60154 29.8725 8.0274C31.2665 10.4533 32.0001 13.2023 32 16.0002Z" fill="#636363"/>
</svg>
