<svg width="29" height="32" viewBox="0 0 29 32" fill="none" xmlns="http://www.w3.org/2000/svg">
<path d="M14.5 31.9999C13.9609 32.0044 13.431 31.8614 12.9692 31.5866L7.1977 28.2518C5.03707 27.058 3.23371 25.3218 1.96987 23.2188C0.706037 21.1157 0.0265207 18.7204 0 16.2747V7.16276C0.000255688 6.54873 0.190836 5.9495 0.546106 5.44568C0.901375 4.94186 1.40429 4.55762 1.98721 4.34462L13.4541 0.183183C14.1295 -0.0610608 14.8705 -0.0610608 15.5459 0.183183L27.0128 4.34462C27.5957 4.55762 28.0986 4.94186 28.4539 5.44568C28.8092 5.9495 28.9997 6.54873 29 7.16276V16.2747C28.9735 18.7204 28.294 21.1157 27.0301 23.2188C25.7663 25.3218 23.9629 27.058 21.8023 28.2518L16.0308 31.5866C15.569 31.8614 15.0391 32.0044 14.5 31.9999ZM14.5 2.35314C14.4246 2.33958 14.3472 2.33958 14.2718 2.35314L2.80492 6.53337C2.67575 6.58063 2.56492 6.66685 2.48813 6.77981C2.41133 6.89278 2.37247 7.02675 2.37705 7.16276V16.2747C2.40462 18.3097 2.97574 20.3013 4.03261 22.0482C5.08948 23.795 6.59462 25.2351 8.39574 26.2227L14.1672 29.5669C14.2693 29.622 14.3837 29.6509 14.5 29.6509C14.6163 29.6509 14.7307 29.622 14.8328 29.5669L20.6043 26.2227C22.4054 25.2351 23.9105 23.795 24.9674 22.0482C26.0243 20.3013 26.5954 18.3097 26.623 16.2747V7.16276C26.6236 7.02993 26.5828 6.90013 26.5063 6.79092C26.4298 6.68171 26.3211 6.59836 26.1951 6.55216L14.7282 2.39072C14.6551 2.36454 14.5777 2.3518 14.5 2.35314Z" fill="#636363"/>
<path d="M17.3053 12.2807L12.0123 17.5737L10.7193 16.2807C10.627 16.1852 10.5167 16.109 10.3947 16.0566C10.2727 16.0042 10.1415 15.9766 10.0087 15.9755C9.87591 15.9743 9.74423 15.9996 9.62133 16.0499C9.49844 16.1002 9.38679 16.1744 9.29289 16.2683C9.199 16.3622 9.12475 16.4739 9.07447 16.5968C9.02419 16.7197 8.99888 16.8513 9.00004 16.9841C9.00119 17.1169 9.02878 17.2481 9.08119 17.3701C9.1336 17.4921 9.20978 17.6025 9.30529 17.6947L11.3053 19.6947C11.4928 19.8822 11.7471 19.9875 12.0123 19.9875C12.2775 19.9875 12.5318 19.8822 12.7193 19.6947L18.7193 13.6947C18.9014 13.5061 19.0022 13.2535 19 12.9913C18.9977 12.7291 18.8925 12.4783 18.7071 12.2929C18.5217 12.1075 18.2709 12.0023 18.0087 12C17.7465 11.9978 17.4939 12.0986 17.3053 12.2807Z" fill="#F7A137"/>
</svg>
